{
  "source": "C:\\Users\\Peter\\Desktop\\stuff\\MIUN\\quantitative_research\\video_compression\\videos\\HEVC_CLASS_B\\Cactus_1920x1080_50.y4m",
  "output": "C:\\Users\\Peter\\Desktop\\stuff\\MIUN\\quantitative_research\\video_compression\\compressed_videos\\HEVC_CLASS_B\\vp9\\1\\Cactus_1920x1080_50_vp9.webm",
  "codec": "vp9",
  "ok": "Input #0, yuv4mpegpipe, from 'C:\\Users\\Peter\\Desktop\\stuff\\MIUN\\quantitative_research\\video_compression\\videos\\HEVC_CLASS_B\\Cactus_1920x1080_50.y4m':\n  Duration: 00:00:10.00, start: 0.000000, bitrate: 1244162 kb/s\n  Stream #0:0: Video: rawvideo (I420 / 0x30323449), yuv420p(progressive), 1920x1080, 50 fps, 50 tbr, 50 tbn\n[out#0/webm @ 000001cbd3f89b40] Codec AVOption b:a (set bitrate (in bits/s)) has not been used for any stream. The most likely reason is either wrong type (e.g. a video option with no video streams) or that it is a private option of some decoder which was not actually used for any stream.\nStream mapping:\n  Stream #0:0 -> #0:0 (rawvideo (native) -> vp9 (libvpx-vp9))\nPress [q] to stop, [?] for help\n[libvpx-vp9 @ 000001cbd3f8be80] v1.15.2-100-g40561f514\nOutput #0, webm, to 'C:\\Users\\Peter\\Desktop\\stuff\\MIUN\\quantitative_research\\video_compression\\compressed_videos\\HEVC_CLASS_B\\vp9\\1\\Cactus_1920x1080_50_vp9.webm':\n  Metadata:\n    encoder         : Lavf62.3.100\n  Stream #0:0: Video: vp9, yuv420p(tv, progressive), 1920x1080, q=2-31, 1000 kb/s, 50 fps, 1k tbn\n    Metadata:\n      encoder         : Lavc62.11.100 libvpx-vp9\n    Side data:\n      cpb: bitrate max/min/avg: 0/0/0 buffer size: 1000000 vbv_delay: N/A\nframe=    0 fps=0.0 q=0.0 size=       0KiB time=N/A bitrate=N/A speed=N/A elapsed=0:00:00.50    \nframe=    7 fps=6.7 q=61.0 size=       0KiB time=00:00:00.14 bitrate=  27.5kbits/s speed=0.133x elapsed=0:00:01.04    \nframe=   13 fps=8.4 q=60.0 size=       0KiB time=00:00:00.26 bitrate=  14.8kbits/s speed=0.167x elapsed=0:00:01.55    \nframe=   17 fps=8.1 q=60.0 size=       0KiB time=00:00:00.34 bitrate=  11.3kbits/s speed=0.163x elapsed=0:00:02.09    \nframe=   22 fps=8.4 q=62.0 size=       0KiB time=00:00:00.44 bitrate=   8.8kbits/s speed=0.168x elapsed=0:00:02.62    \nframe=   26 fps=8.2 q=61.0 size=       0KiB time=00:00:00.52 bitrate=   7.4kbits/s speed=0.165x elapsed=0:00:03.15    \nframe=   32 fps=8.7 q=62.0 size=       0KiB time=00:00:00.64 bitrate=   6.0kbits/s speed=0.174x elapsed=0:00:03.67    \nframe=   36 fps=8.6 q=61.0 size=       0KiB time=00:00:00.70 bitrate=   5.5kbits/s speed=0.166x elapsed=0:00:04.21    \nframe=   40 fps=8.4 q=62.0 size=       0KiB time=00:00:00.80 bitrate=   4.8kbits/s speed=0.168x elapsed=0:00:04.76    \nframe=   44 fps=8.3 q=62.0 size=       0KiB time=00:00:00.88 bitrate=   4.4kbits/s speed=0.167x elapsed=0:00:05.28    \nframe=   50 fps=8.6 q=62.0 size=       0KiB time=00:00:01.00 bitrate=   3.9kbits/s speed=0.172x elapsed=0:00:05.80    \nframe=   55 fps=8.7 q=62.0 size=       0KiB time=00:00:01.10 bitrate=   3.5kbits/s speed=0.174x elapsed=0:00:06.32    \nframe=   60 fps=8.8 q=61.0 size=       0KiB time=00:00:01.18 bitrate=   3.3kbits/s speed=0.172x elapsed=0:00:06.85    \nframe=   65 fps=8.8 q=62.0 size=       0KiB time=00:00:01.30 bitrate=   3.0kbits/s speed=0.176x elapsed=0:00:07.40    \nframe=   69 fps=8.7 q=60.0 size=       0KiB time=00:00:01.38 bitrate=   2.8kbits/s speed=0.174x elapsed=0:00:07.93    \nframe=   75 fps=8.9 q=62.0 size=       0KiB time=00:00:01.50 bitrate=   2.6kbits/s speed=0.177x elapsed=0:00:08.45    \nframe=   79 fps=8.8 q=62.0 size=       0KiB time=00:00:01.58 bitrate=   2.4kbits/s speed=0.176x elapsed=0:00:08.97    \nframe=   84 fps=8.8 q=62.0 size=       0KiB time=00:00:01.68 bitrate=   2.3kbits/s speed=0.177x elapsed=0:00:09.50    \nframe=   88 fps=8.8 q=62.0 size=       0KiB time=00:00:01.76 bitrate=   2.2kbits/s speed=0.176x elapsed=0:00:10.02    \nframe=   93 fps=8.8 q=61.0 size=       0KiB time=00:00:01.86 bitrate=   2.1kbits/s speed=0.176x elapsed=0:00:10.54    \nframe=   98 fps=8.8 q=62.0 size=       0KiB time=00:00:01.96 bitrate=   2.0kbits/s speed=0.177x elapsed=0:00:11.08    \nframe=  102 fps=8.8 q=61.0 size=       0KiB time=00:00:02.04 bitrate=   1.9kbits/s speed=0.175x elapsed=0:00:11.63    \nframe=  107 fps=8.8 q=62.0 size=       0KiB time=00:00:02.14 bitrate=   1.8kbits/s speed=0.176x elapsed=0:00:12.16    \nframe=  112 fps=8.8 q=63.0 size=       0KiB time=00:00:02.24 bitrate=   1.7kbits/s speed=0.176x elapsed=0:00:12.71    \nframe=  117 fps=8.8 q=60.0 size=       0KiB time=00:00:02.34 bitrate=   1.6kbits/s speed=0.177x elapsed=0:00:13.24    \nframe=  122 fps=8.9 q=59.0 size=       0KiB time=00:00:02.44 bitrate=   1.6kbits/s speed=0.177x elapsed=0:00:13.76    \nframe=  127 fps=8.9 q=62.0 size=       0KiB time=00:00:02.54 bitrate=   1.5kbits/s speed=0.178x elapsed=0:00:14.30    \nframe=  131 fps=8.8 q=59.0 size=     256KiB time=00:00:02.62 bitrate= 800.4kbits/s speed=0.177x elapsed=0:00:14.82    \nframe=  138 fps=9.0 q=62.0 size=     256KiB time=00:00:02.76 bitrate= 759.8kbits/s speed=0.179x elapsed=0:00:15.38    \nframe=  143 fps=9.0 q=62.0 size=     256KiB time=00:00:02.86 bitrate= 733.3kbits/s speed=0.179x elapsed=0:00:15.94    \nframe=  149 fps=9.1 q=62.0 size=     256KiB time=00:00:02.98 bitrate= 703.7kbits/s speed=0.181x elapsed=0:00:16.45    \nframe=  153 fps=9.0 q=60.0 size=     256KiB time=00:00:03.06 bitrate= 685.3kbits/s speed=0.18x elapsed=0:00:16.98    \nframe=  159 fps=9.1 q=62.0 size=     256KiB time=00:00:03.18 bitrate= 659.5kbits/s speed=0.182x elapsed=0:00:17.51    \nframe=  164 fps=9.1 q=60.0 size=     256KiB time=00:00:03.28 bitrate= 639.4kbits/s speed=0.181x elapsed=0:00:18.08    \nframe=  170 fps=9.1 q=61.0 size=     256KiB time=00:00:03.40 bitrate= 616.8kbits/s speed=0.183x elapsed=0:00:18.62    \nframe=  175 fps=9.1 q=57.0 size=     256KiB time=00:00:03.50 bitrate= 599.2kbits/s speed=0.183x elapsed=0:00:19.13    \nframe=  181 fps=9.2 q=61.0 size=     256KiB time=00:00:03.62 bitrate= 579.3kbits/s speed=0.184x elapsed=0:00:19.66    \nframe=  186 fps=9.2 q=60.0 size=     256KiB time=00:00:03.72 bitrate= 563.8kbits/s speed=0.184x elapsed=0:00:20.19    \nframe=  192 fps=9.3 q=61.0 size=     256KiB time=00:00:03.84 bitrate= 546.1kbits/s speed=0.185x elapsed=0:00:20.72    \nframe=  197 fps=9.2 q=60.0 size=     256KiB time=00:00:03.94 bitrate= 532.3kbits/s speed=0.185x elapsed=0:00:21.30    \nframe=  203 fps=9.3 q=61.0 size=     256KiB time=00:00:04.06 bitrate= 516.5kbits/s speed=0.186x elapsed=0:00:21.82    \nframe=  208 fps=9.3 q=60.0 size=     256KiB time=00:00:04.16 bitrate= 504.1kbits/s speed=0.186x elapsed=0:00:22.33    \nframe=  214 fps=9.4 q=62.0 size=     256KiB time=00:00:04.28 bitrate= 490.0kbits/s speed=0.187x elapsed=0:00:22.84    \nframe=  219 fps=9.4 q=60.0 size=     256KiB time=00:00:04.38 bitrate= 478.8kbits/s speed=0.187x elapsed=0:00:23.36    \nframe=  225 fps=9.4 q=62.0 size=     256KiB time=00:00:04.50 bitrate= 466.0kbits/s speed=0.188x elapsed=0:00:23.89    \nframe=  230 fps=9.4 q=58.0 size=     256KiB time=00:00:04.60 bitrate= 455.9kbits/s speed=0.188x elapsed=0:00:24.43    \nframe=  236 fps=9.5 q=62.0 size=     256KiB time=00:00:04.72 bitrate= 444.3kbits/s speed=0.189x elapsed=0:00:24.95    \nframe=  241 fps=9.5 q=62.0 size=     256KiB time=00:00:04.82 bitrate= 435.1kbits/s speed=0.189x elapsed=0:00:25.47    \nframe=  247 fps=9.5 q=63.0 size=     256KiB time=00:00:04.94 bitrate= 424.5kbits/s speed=0.19x elapsed=0:00:26.00    \nframe=  252 fps=9.5 q=62.0 size=     256KiB time=00:00:05.04 bitrate= 416.1kbits/s speed=0.19x elapsed=0:00:26.55    \nframe=  256 fps=9.5 q=63.0 size=     256KiB time=00:00:05.12 bitrate= 409.6kbits/s speed=0.189x elapsed=0:00:27.07    \nframe=  263 fps=9.5 q=62.0 size=     512KiB time=00:00:05.26 bitrate= 797.4kbits/s speed=0.191x elapsed=0:00:27.58    \nframe=  269 fps=9.6 q=62.0 size=     512KiB time=00:00:05.38 bitrate= 779.6kbits/s speed=0.191x elapsed=0:00:28.12    \nframe=  275 fps=9.6 q=62.0 size=     512KiB time=00:00:05.50 bitrate= 762.6kbits/s speed=0.192x elapsed=0:00:28.66    \nframe=  278 fps=9.5 q=62.0 size=     512KiB time=00:00:05.56 bitrate= 754.4kbits/s speed=0.19x elapsed=0:00:29.19    \nframe=  284 fps=9.6 q=59.0 size=     512KiB time=00:00:05.68 bitrate= 738.4kbits/s speed=0.191x elapsed=0:00:29.71    \nframe=  289 fps=9.5 q=59.0 size=     512KiB time=00:00:05.78 bitrate= 725.7kbits/s speed=0.191x elapsed=0:00:30.26    \nframe=  294 fps=9.5 q=61.0 size=     512KiB time=00:00:05.88 bitrate= 713.3kbits/s speed=0.191x elapsed=0:00:30.81    \nframe=  299 fps=9.5 q=62.0 size=     512KiB time=00:00:05.98 bitrate= 701.4kbits/s speed=0.191x elapsed=0:00:31.35    \nframe=  304 fps=9.5 q=61.0 size=     512KiB time=00:00:06.08 bitrate= 689.9kbits/s speed=0.191x elapsed=0:00:31.89    \nframe=  311 fps=9.6 q=61.0 size=     512KiB time=00:00:06.22 bitrate= 674.3kbits/s speed=0.192x elapsed=0:00:32.45    \nframe=  316 fps=9.6 q=61.0 size=     512KiB time=00:00:06.32 bitrate= 663.7kbits/s speed=0.191x elapsed=0:00:33.00    \nframe=  322 fps=9.6 q=62.0 size=     512KiB time=00:00:06.44 bitrate= 651.3kbits/s speed=0.192x elapsed=0:00:33.52    \nframe=  327 fps=9.6 q=62.0 size=     512KiB time=00:00:06.54 bitrate= 641.3kbits/s speed=0.192x elapsed=0:00:34.08    \nframe=  332 fps=9.6 q=62.0 size=     512KiB time=00:00:06.64 bitrate= 631.7kbits/s speed=0.192x elapsed=0:00:34.61    \nframe=  336 fps=9.6 q=59.0 size=     512KiB time=00:00:06.72 bitrate= 624.2kbits/s speed=0.191x elapsed=0:00:35.13    \nframe=  342 fps=9.6 q=60.0 size=     512KiB time=00:00:06.84 bitrate= 613.2kbits/s speed=0.192x elapsed=0:00:35.66    \nframe=  346 fps=9.6 q=61.0 size=     512KiB time=00:00:06.92 bitrate= 606.1kbits/s speed=0.191x elapsed=0:00:36.20    \nframe=  352 fps=9.6 q=63.0 size=     512KiB time=00:00:07.04 bitrate= 595.8kbits/s speed=0.192x elapsed=0:00:36.71    \nframe=  357 fps=9.6 q=63.0 size=     512KiB time=00:00:07.14 bitrate= 587.4kbits/s speed=0.192x elapsed=0:00:37.24    \nframe=  363 fps=9.6 q=62.0 size=     512KiB time=00:00:07.26 bitrate= 577.7kbits/s speed=0.192x elapsed=0:00:37.77    \nframe=  368 fps=9.6 q=62.0 size=     512KiB time=00:00:07.36 bitrate= 569.9kbits/s speed=0.192x elapsed=0:00:38.29    \nframe=  374 fps=9.6 q=62.0 size=     512KiB time=00:00:07.48 bitrate= 560.7kbits/s speed=0.193x elapsed=0:00:38.80    \nframe=  379 fps=9.6 q=62.0 size=     512KiB time=00:00:07.58 bitrate= 553.3kbits/s speed=0.193x elapsed=0:00:39.33    \nframe=  384 fps=9.6 q=62.0 size=     512KiB time=00:00:07.68 bitrate= 546.1kbits/s speed=0.193x elapsed=0:00:39.84    \nframe=  390 fps=9.6 q=62.0 size=    1024KiB time=00:00:07.80 bitrate=1075.5kbits/s speed=0.193x elapsed=0:00:40.42    \nframe=  396 fps=9.7 q=45.0 size=    1024KiB time=00:00:07.92 bitrate=1059.2kbits/s speed=0.193x elapsed=0:00:40.95    \nframe=  401 fps=9.7 q=61.0 size=    1024KiB time=00:00:08.02 bitrate=1046.0kbits/s speed=0.193x elapsed=0:00:41.47    \nframe=  406 fps=9.7 q=62.0 size=    1024KiB time=00:00:08.12 bitrate=1033.1kbits/s speed=0.193x elapsed=0:00:41.99    \nframe=  412 fps=9.7 q=61.0 size=    1024KiB time=00:00:08.24 bitrate=1018.0kbits/s speed=0.194x elapsed=0:00:42.53    \nframe=  417 fps=9.7 q=62.0 size=    1024KiB time=00:00:08.34 bitrate=1005.8kbits/s speed=0.194x elapsed=0:00:43.05    \nframe=  423 fps=9.7 q=62.0 size=    1024KiB time=00:00:08.46 bitrate= 991.6kbits/s speed=0.194x elapsed=0:00:43.59    \nframe=  428 fps=9.7 q=62.0 size=    1024KiB time=00:00:08.56 bitrate= 980.0kbits/s speed=0.194x elapsed=0:00:44.11    \nframe=  433 fps=9.7 q=62.0 size=    1024KiB time=00:00:08.66 bitrate= 968.7kbits/s speed=0.194x elapsed=0:00:44.67    \nframe=  438 fps=9.7 q=62.0 size=    1024KiB time=00:00:08.76 bitrate= 957.6kbits/s speed=0.194x elapsed=0:00:45.21    \nframe=  443 fps=9.7 q=61.0 size=    1024KiB time=00:00:08.86 bitrate= 946.8kbits/s speed=0.194x elapsed=0:00:45.72    \nframe=  448 fps=9.7 q=61.0 size=    1024KiB time=00:00:08.96 bitrate= 936.2kbits/s speed=0.194x elapsed=0:00:46.27    \nframe=  453 fps=9.7 q=59.0 size=    1024KiB time=00:00:09.06 bitrate= 925.9kbits/s speed=0.193x elapsed=0:00:46.83    \nframe=  459 fps=9.7 q=62.0 size=    1024KiB time=00:00:09.18 bitrate= 913.8kbits/s speed=0.194x elapsed=0:00:47.37    \nframe=  463 fps=9.7 q=63.0 size=    1024KiB time=00:00:09.26 bitrate= 905.9kbits/s speed=0.193x elapsed=0:00:47.90    \nframe=  469 fps=9.7 q=62.0 size=    1024KiB time=00:00:09.38 bitrate= 894.3kbits/s speed=0.194x elapsed=0:00:48.42    \nframe=  473 fps=9.7 q=45.0 size=    1024KiB time=00:00:09.46 bitrate= 886.7kbits/s speed=0.193x elapsed=0:00:48.94    \nframe=  476 fps=9.6 q=61.0 size=    1024KiB time=00:00:09.52 bitrate= 881.2kbits/s speed=0.192x elapsed=0:00:49.49    \nframe=  476 fps=9.5 q=61.0 size=    1024KiB time=00:00:09.52 bitrate= 881.2kbits/s speed=0.19x elapsed=0:00:50.02    \nframe=  476 fps=9.4 q=61.0 size=    1024KiB time=00:00:09.52 bitrate= 881.2kbits/s speed=0.188x elapsed=0:00:50.54    \nframe=  476 fps=9.3 q=61.0 size=    1024KiB time=00:00:09.52 bitrate= 881.2kbits/s speed=0.186x elapsed=0:00:51.05    \n[out#0/webm @ 000001cbd3f89b40] video:1337KiB audio:0KiB subtitle:0KiB other streams:0KiB global headers:0KiB muxing overhead: 0.300435%\nframe=  500 fps=9.7 q=62.0 Lsize=    1341KiB time=00:00:10.00 bitrate=1098.8kbits/s speed=0.194x elapsed=0:00:51.58    \n",
  "seconds": 51.720402240753174,
  "probe_out": {}
}